<svg width="149" height="32" viewBox="0 0 149 32" fill="none" xmlns="http://www.w3.org/2000/svg">
<g clip-path="url(#clip0_618_12121)">
<path d="M25.8719 3.05176e-05H4.39485C3.77268 3.05176e-05 3.26831 0.500403 3.26831 1.11764V5.64901C3.26831 6.26625 3.77268 6.76662 4.39485 6.76662H25.8719C26.4941 6.76662 26.9984 6.26625 26.9984 5.64901V1.11764C26.9984 0.500403 26.4941 3.05176e-05 25.8719 3.05176e-05Z" fill="#006174"/>
<path d="M25.8719 16.7756H4.39485C3.77268 16.7756 3.26831 17.2759 3.26831 17.8932V22.4245C3.26831 23.0418 3.77268 23.5422 4.39485 23.5422H25.8719C26.4941 23.5422 26.9984 23.0418 26.9984 22.4245V17.8932C26.9984 17.2759 26.4941 16.7756 25.8719 16.7756Z" fill="#006174"/>
<path d="M12.3734 8.45792H1.12654C0.504368 8.45792 0 8.95829 0 9.57553V14.1069C0 14.7241 0.504368 15.2245 1.12654 15.2245H12.3734C12.9955 15.2245 13.4999 14.7241 13.4999 14.1069V9.57553C13.4999 8.95829 12.9955 8.45792 12.3734 8.45792Z" fill="#006174"/>
<path d="M12.3734 25.2334H1.12654C0.504368 25.2334 0 25.7338 0 26.351V30.8824C0 31.4996 0.504368 32 1.12654 32H12.3734C12.9955 32 13.4999 31.4996 13.4999 30.8824V26.351C13.4999 25.7338 12.9955 25.2334 12.3734 25.2334Z" fill="#006174"/>
<path d="M34.6714 5.92096H47.603V9.86731H38.9348V13.8151H47.0333V17.7628H38.9348V25.2334H34.6714V5.92096Z" fill="black"/>
<path d="M50.3015 4.65179H54.4236V25.0932H50.3015V4.65179Z" fill="black"/>
<path d="M65.5062 23.5422H65.4505C64.5339 24.9912 62.8676 25.572 61.1671 25.572C58.6413 25.572 56.3625 24.1215 56.3625 21.4004C56.3625 16.726 62.0295 16.6424 65.5005 16.6424C65.5005 15.1678 64.2783 14.223 62.8334 14.223C61.4727 14.223 60.3347 14.835 59.4452 15.8364L57.2335 13.5559C58.7627 12.1068 60.9844 11.3816 63.1775 11.3816C68.032 11.3816 69.3427 13.8562 69.3427 18.3635V25.2334H65.5062V23.5422ZM64.6395 19.4542C63.3845 19.4542 60.6046 19.5618 60.6046 21.3466C60.6046 22.3211 61.6397 22.7815 62.5392 22.7815C64.1484 22.7815 65.649 21.9415 65.649 20.3196V19.4542H64.6395Z" fill="black"/>
<path d="M79.4358 15.8817C79.155 15.5262 78.7944 15.2406 78.3826 15.0478C77.9709 14.855 77.5194 14.7603 77.0642 14.7712C76.3818 14.7712 75.565 15.0687 75.565 15.8548C75.565 17.8011 82.4642 16.1523 82.4642 21.1568C82.4642 24.5096 79.196 25.4842 76.3532 25.4842C74.5056 25.4842 72.4539 25.0252 71.146 23.6994L73.6261 20.9641C74.39 21.8834 75.2909 22.3976 76.5174 22.3976C77.444 22.3976 78.3735 22.154 78.3735 21.4514C78.3735 19.3366 71.4758 21.127 71.4758 16.1226C71.4758 13.0374 74.2558 11.6861 77.0443 11.6861C78.789 11.6861 80.7237 12.111 81.9516 13.4171L79.4358 15.8817Z" fill="black"/>
<path d="M88.6666 4.65179V13.8151H88.7208C89.1035 12.7825 90.4342 11.6903 92.4331 11.6903C96.5738 11.6903 97.3391 14.41 97.3391 17.9456V25.2349H93.2156V18.719C93.2327 17.2033 93.2056 15.2571 91.101 15.2571C88.9707 15.2571 88.648 16.9059 88.6737 18.6099V25.0904H84.5474V4.65179H88.6666Z" fill="black"/>
<path d="M100.746 6.06122H107.931C111.944 6.06122 115.274 7.33606 115.274 11.8858C115.274 16.3804 112.19 17.7629 108.122 17.7629H105.009V25.2335H100.746V6.06122ZM105.009 14.097H107.831C109.318 14.097 110.808 13.587 110.808 11.815C110.808 9.856 108.809 9.58545 107.18 9.58545H105.009V14.097Z" fill="black"/>
<path d="M125.755 23.5422H125.701C124.817 24.9912 123.208 25.572 121.572 25.572C119.132 25.572 116.934 24.1215 116.934 21.4004C116.934 16.726 122.403 16.6424 125.755 16.6424C125.755 15.1678 124.576 14.223 123.185 14.223C121.87 14.223 120.771 14.835 119.913 15.8364L117.758 13.5559C119.235 12.1068 121.379 11.3816 123.498 11.3816C128.19 11.3816 129.45 13.8562 129.45 18.3635V25.2334H125.755V23.5422ZM124.747 19.4542C123.492 19.4542 120.711 19.5618 120.711 21.3466C120.711 22.3211 121.747 22.7815 122.647 22.7815C124.255 22.7815 125.755 21.9415 125.755 20.3196V19.4542H124.747Z" fill="black"/>
<path d="M139.681 27.361C138.581 30.1671 137.95 31.7521 134.027 31.7521C132.982 31.7534 131.943 31.588 130.951 31.262L131.501 27.9049C132.105 28.1751 132.76 28.3147 133.423 28.3143C135.279 28.3143 135.59 27.5239 136.166 26.0805L136.47 25.3184L130.623 11.9821H135.07L138.497 20.7233H138.551L141.496 11.9821H145.722L139.681 27.361Z" fill="black"/>
<path d="M147.438 12.0133C147.129 12.013 146.826 12.1038 146.569 12.2741C146.311 12.4444 146.111 12.6867 145.992 12.9701C145.874 13.2536 145.843 13.5656 145.903 13.8666C145.963 14.1676 146.112 14.4441 146.331 14.6611C146.55 14.8781 146.828 15.0259 147.132 15.0857C147.435 15.1455 147.75 15.1147 148.035 14.9971C148.321 14.8795 148.565 14.6805 148.737 14.4252C148.909 14.1699 149 13.8698 149 13.563C149 13.152 148.835 12.7578 148.542 12.4672C148.249 12.1766 147.852 12.0133 147.438 12.0133V12.0133ZM147.438 14.8024C147.262 14.8025 147.087 14.7674 146.925 14.6993C146.762 14.6312 146.615 14.5315 146.493 14.4059C146.37 14.2804 146.274 14.1317 146.21 13.9687C146.146 13.8056 146.116 13.6315 146.121 13.4567C146.133 13.1234 146.271 12.8066 146.508 12.5701C146.745 12.3336 147.063 12.1949 147.399 12.1819C147.575 12.1741 147.751 12.2014 147.916 12.2621C148.081 12.3229 148.232 12.4159 148.36 12.5356C148.489 12.6554 148.591 12.7994 148.663 12.9592C148.734 13.119 148.772 13.2914 148.774 13.466C148.777 13.6407 148.745 13.8141 148.679 13.9761C148.613 14.138 148.515 14.2852 148.39 14.4089C148.266 14.5326 148.118 14.6302 147.955 14.6961C147.792 14.762 147.617 14.7948 147.441 14.7925L147.438 14.8024Z" fill="black"/>
<path d="M146.717 13.4846V13.3115H147.925V13.4846H147.419V14.9227H147.224V13.4846H146.717ZM148.226 13.3115H148.459L149.007 14.6489H149.026L149.573 13.3115H149.806V14.9227H149.624V13.6986H149.608L149.104 14.9227H148.928L148.425 13.6986H148.409V14.9227H148.226V13.3115Z" fill="black"/>
</g>
<defs>
<clipPath id="clip0_618_12121">
<rect width="149" height="32" fill="white"/>
</clipPath>
</defs>
</svg>
