<svg width="608" height="699" viewBox="0 0 608 699" fill="none" xmlns="http://www.w3.org/2000/svg">
<g opacity="0.3">
<path d="M663 355.96C663.024 170.699 494.482 1.48456 308.5 1.48456C126.131 1.47236 -46 174.299 -46 355.96C-46 449.024 -7.19281 548.91 58.0106 615.737C123.214 682.563 216.974 710.534 308.5 710.534C400.026 710.534 492.273 681.794 557.806 615.724C625.791 547.189 662.988 452.258 663 355.96Z" stroke="white" stroke-miterlimit="10"/>
<path d="M307.816 685.809C228.688 685.59 139.127 664.038 81.4774 603.143C23.645 542.052 -12.1235 444.778 -12.1113 361.415C-12.1113 275.539 25.4633 209.457 85.5168 150.551C148.255 88.9963 222.794 41.2806 310.062 40.9999C468.402 40.4996 631.014 195.985 631.014 361.403C631.038 543.358 487.427 686.322 307.816 685.809Z" stroke="white" stroke-miterlimit="10"/>
<path d="M599.981 375.938C599.847 228.056 452.953 89.6802 313.272 90.1317C174.152 90.5832 23.2673 228.41 23.2307 375.963C23.2307 448.915 55.9728 539.49 105.129 594.552C154.455 649.87 238.147 668.237 306.645 668.432C377.963 668.652 458.689 646.295 513.361 594.43C573.841 537.086 600.042 457.86 599.981 375.938Z" stroke="white" stroke-miterlimit="10"/>
<path d="M306.206 656.96C246.213 657.448 171.052 639.277 130.194 589.218C89.0562 538.806 59.121 462.595 58.9624 397.55C58.8037 330.43 81.5267 272.183 131.439 226.09C181.925 179.473 249.716 146.255 316.762 146.584C443.129 147.219 569.497 264.715 569.46 397.501C569.46 467.061 547.713 540.856 494.274 588.974C443.324 634.847 371.604 656.435 306.206 656.96Z" stroke="white" stroke-miterlimit="10"/>
<path d="M538.903 424.032C538.597 300.532 439.517 208.03 318.873 208.115C258.978 208.115 198.571 226.323 153.747 267.729C108.497 309.526 93.8769 364.454 93.9501 424.093C94.0355 479.131 121.103 544.822 156.273 587.266C193.152 631.76 252.376 649.98 307.597 649.956C365.735 649.956 432.537 627.782 476.64 586.961C521.037 545.957 539.049 482.707 538.903 424.032Z" stroke="white" stroke-miterlimit="10"/>
<path d="M312.881 645.684C213.861 645.684 126.167 550.838 125.972 452.002C125.837 398.307 134.941 349.493 175.896 311.564C215.594 274.746 266.544 264.092 319.08 264.068C369.993 264.068 415.378 274.6 453.026 311.027C490.674 347.455 509.589 399.673 509.748 451.697C510.09 561.26 422.31 645.635 312.881 645.684Z" stroke="white" stroke-miterlimit="10"/>
<path d="M481.375 479.387C481.253 434.234 465.449 387.86 432.475 356.058C400.746 325.452 361.402 318.544 319.08 318.691C275.563 318.85 231.386 325.696 198.168 356.754C163.022 389.606 156.92 433.99 156.908 480.009C156.908 562.432 244.773 641.096 323.278 641.645C410.277 642.267 481.595 564.641 481.375 479.387Z" stroke="white" stroke-miterlimit="10"/>
<path d="M331.431 634.299C271.328 635.153 188.894 570.523 188.064 507.236C187.576 470.625 192.103 429.402 220.867 402.151C246.921 377.476 285.228 372.35 319.349 372.57C353.116 372.777 387.103 376.622 412.718 401.334C439.957 427.596 453.136 469.039 453.149 506.284C453.173 570.645 394.62 633.396 331.431 634.299Z" stroke="white" stroke-miterlimit="10"/>
<path d="M425.325 530.873C425.471 465.34 385.676 424.288 320.314 424.349C295.382 424.349 263.763 428.498 244.396 446.315C223.003 466.012 219.403 505.453 219.805 531.935C220.55 582.616 290.22 620.606 334.519 620.679C381.404 620.777 425.227 578.211 425.325 530.873Z" stroke="white" stroke-miterlimit="10"/>
<path d="M333.041 609.464C304.058 609.94 254.145 585.228 252.498 552.596C250.472 512.458 279.211 473.114 322.412 472.687C364.99 472.296 398.794 511.067 398.074 551.509C397.585 583.129 363.416 608.964 333.041 609.464Z" stroke="white" stroke-miterlimit="10"/>
<path d="M364.893 569.034C365.906 550.887 347.43 528.25 326.684 528.689C306.328 529.116 289.939 551.314 291.733 569.412C293.234 584.544 316.14 595.04 330.564 594.625C345.367 594.222 364.039 584.3 364.893 569.034Z" stroke="white" stroke-miterlimit="10"/>
<path d="M329.245 575.624C330.21 587.156 336.995 613.943 333.919 626.647C331.296 637.508 325.279 637.715 318.201 643.61C306.998 652.933 310.403 646.124 306.461 658.095C302.129 671.238 308.036 696.329 308.499 710.57" stroke="white" stroke-miterlimit="10"/>
<path d="M329.247 575.624C364.21 595.149 399.527 593.209 437.553 599.592C474.725 605.828 500.487 616.249 531.52 639.375" stroke="white" stroke-miterlimit="10"/>
<path d="M329.247 575.623C454.943 580.053 525.968 423.714 655.179 431.329" stroke="white" stroke-miterlimit="10"/>
<path d="M329.247 575.624C398.404 533.375 430.939 443.667 475.885 378.928C518.987 316.836 565.495 250.632 628.294 206.919" stroke="white" stroke-miterlimit="10"/>
<path d="M329.247 575.623C348.773 529.47 355.961 478.264 369.287 430.036C380.783 388.47 391.058 346.661 401.797 304.901C423.824 219.281 442.813 130.39 472.821 47.2233" stroke="white" stroke-miterlimit="10"/>
<path d="M329.246 575.623C315.261 480.985 298.652 387.848 289.438 292.502C280.176 196.521 266.252 101.797 253.56 6.26813" stroke="white" stroke-miterlimit="10"/>
<path d="M329.246 575.623C214.411 439.164 168.355 257.746 63.5391 113.964" stroke="white" stroke-miterlimit="10"/>
<path d="M329.246 575.624C173.151 532.911 118.833 331.553 -39.8738 290.854" stroke="white" stroke-miterlimit="10"/>
<path d="M329.247 575.624C267.326 585.875 213.008 554.536 158.288 530.324C102.042 505.441 46.8087 491.273 -14.8679 501.329" stroke="white" stroke-miterlimit="10"/>
<path d="M329.246 575.624C298.737 599.714 259.356 607.499 221.428 612.478C175.811 618.446 147.865 627.123 115.538 661.463" stroke="white" stroke-miterlimit="10"/>
</g>
</svg>
