<svg width="48" height="48" viewBox="0 0 48 48" fill="none" xmlns="http://www.w3.org/2000/svg">
<rect width="48" height="48" rx="12" fill="#D7FFDB"/>
<path d="M36.232 8.28564H15.1204C14.5086 8.28564 14.0127 8.78157 14.0127 9.39333V13.8827C14.0127 14.4945 14.5086 14.9904 15.1204 14.9904H36.232C36.8438 14.9904 37.3397 14.4945 37.3397 13.8827V9.39333C37.3397 8.78157 36.8438 8.28564 36.232 8.28564Z" fill="#006174"/>
<path d="M36.232 24.9077H15.1204C14.5086 24.9077 14.0127 25.4036 14.0127 26.0154V30.5048C14.0127 31.1166 14.5086 31.6125 15.1204 31.6125H36.232C36.8438 31.6125 37.3397 31.1166 37.3397 30.5048V26.0154C37.3397 25.4036 36.8438 24.9077 36.232 24.9077Z" fill="#006174"/>
<path d="M22.8226 16.5269H11.7681C11.1563 16.5269 10.6604 17.0228 10.6604 17.6345V22.1239C10.6604 22.7357 11.1563 23.2316 11.7681 23.2316H22.8226C23.4343 23.2316 23.9302 22.7357 23.9302 22.1239V17.6345C23.9302 17.0228 23.4343 16.5269 22.8226 16.5269Z" fill="#006174"/>
<path d="M22.8226 33.1489H11.7681C11.1563 33.1489 10.6604 33.6449 10.6604 34.2566V38.746C10.6604 39.3578 11.1563 39.8537 11.7681 39.8537H22.8226C23.4343 39.8537 23.9302 39.3578 23.9302 38.746V34.2566C23.9302 33.6449 23.4343 33.1489 22.8226 33.1489Z" fill="#006174"/>
</svg>
